<?xml version="1.0" encoding="UTF-8"?> <svg xmlns="http://www.w3.org/2000/svg" xmlns:xlink="http://www.w3.org/1999/xlink" version="1.1" x="0px" y="0px" viewBox="0 0 1920 1080" xml:space="preserve"> <g id="RAY_Brand_Black" display="none"> <path display="inline" d="M805.246,600.642l144.593-16.344l5.329-12.743l-145.423,19.327L805.246,600.642z M781.826,651.43 l138.414,3.533l5.455-13.022l-138.917-1.255L781.826,651.43z M484.618,623.192l102.85-17.435 c112.465-105.283,66.118-337.077-137.903-337.821H208.311v550.106h140.664v-286.84V393.676c33.016,0,67.586-0.792,100.591,0 c80.164,0.782,76.235,137.526,0,137.526H348.974l167.395,286.84H673.54v-20.438l-94.982-153.918L484.618,623.192z M1022.473,267.861h-60.519L816.125,577.058l145.935-21.952l29.762-71.061l26.509,62.594l127.487-19.182L1022.473,267.861z M714.405,797.606v20.438H851.94l62.257-148.648l-137.922-5.938L714.405,797.606z M1355.737,538.404l214.601-24.269l16.518-26.528 L1344.23,519.85L1355.737,538.404z M1385.866,666.875l139.1,3.562v-23.082l-139.1-1.255V666.875z M1557.972,267.937l-99.8,183.102 h-5.502l-99.81-183.102h-151.669v21.219l130.431,210.353l273.44-41.134l105.37-169.219v-21.219H1557.972z M1385.866,818.043h139.1 V695.691l-139.1-5.994V818.043z M1073.223,676.239l60.055,141.804h137.526v-20.438l-53.278-115.149L1073.223,676.239z M1199.927,644.421l-140.722-1.274l6.584,15.543l142.43,3.648L1199.927,644.421z M1153.994,545.133l-129.03,17.154l5.464,12.897 l130.633-14.77L1153.994,545.133z"></path> </g> <g id="RAY_Brand_White" display="none"> <path display="inline" fill="#FFFFFF" d="M805.246,600.642l144.593-16.344l5.329-12.743l-145.423,19.327L805.246,600.642z M781.826,651.43l138.414,3.533l5.455-13.022l-138.917-1.255L781.826,651.43z M484.618,623.192l102.85-17.435 c112.465-105.283,66.118-337.077-137.903-337.821H208.311v550.106h140.664v-286.84V393.676c33.016,0,67.586-0.792,100.591,0 c80.164,0.782,76.235,137.526,0,137.526H348.974l167.395,286.84H673.54v-20.438l-94.982-153.918L484.618,623.192z M1022.473,267.861h-60.519L816.125,577.058l145.935-21.952l29.762-71.061l26.509,62.594l127.487-19.182L1022.473,267.861z M714.405,797.606v20.438H851.94l62.257-148.648l-137.922-5.938L714.405,797.606z M1355.737,538.404l214.601-24.269l16.518-26.528 L1344.23,519.85L1355.737,538.404z M1385.866,666.875l139.1,3.562v-23.082l-139.1-1.255V666.875z M1557.972,267.937l-99.8,183.102 h-5.502l-99.81-183.102h-151.669v21.219l130.431,210.353l273.44-41.134l105.37-169.219v-21.219H1557.972z M1385.866,818.043h139.1 V695.691l-139.1-5.994V818.043z M1073.223,676.239l60.055,141.804h137.526v-20.438l-53.278-115.149L1073.223,676.239z M1199.927,644.421l-140.722-1.274l6.584,15.543l142.43,3.648L1199.927,644.421z M1153.994,545.133l-129.03,17.154l5.464,12.897 l130.633-14.77L1153.994,545.133z"></path> </g> <g id="RAY_Brand_Red"> <path fill="#CA2727" d="M805.246,600.642l144.593-16.344l5.329-12.743l-145.423,19.327L805.246,600.642z M781.826,651.43 l138.414,3.533l5.455-13.022l-138.917-1.255L781.826,651.43z M484.618,623.192l102.85-17.435 c112.465-105.283,66.118-337.077-137.903-337.821H208.311v550.106h140.664v-286.84V393.676c33.016,0,67.586-0.792,100.591,0 c80.164,0.782,76.235,137.526,0,137.526H348.974l167.395,286.84H673.54v-20.438l-94.982-153.918L484.618,623.192z M1022.473,267.861h-60.519L816.125,577.058l145.935-21.952l29.762-71.061l26.509,62.594l127.487-19.182L1022.473,267.861z M714.405,797.606v20.438H851.94l62.257-148.648l-137.922-5.938L714.405,797.606z M1355.737,538.404l214.601-24.269l16.518-26.528 L1344.23,519.85L1355.737,538.404z M1385.866,666.875l139.1,3.562v-23.082l-139.1-1.255V666.875z M1557.972,267.937l-99.8,183.102 h-5.502l-99.81-183.102h-151.669v21.219l130.431,210.353l273.44-41.134l105.37-169.219v-21.219H1557.972z M1385.866,818.043h139.1 V695.691l-139.1-5.994V818.043z M1073.223,676.239l60.055,141.804h137.526v-20.438l-53.278-115.149L1073.223,676.239z M1199.927,644.421l-140.722-1.274l6.584,15.543l142.43,3.648L1199.927,644.421z M1153.994,545.133l-129.03,17.154l5.464,12.897 l130.633-14.77L1153.994,545.133z"></path> </g> <g id="RAY_Brand_Yellow" display="none"> <path display="inline" fill="#E1C83A" d="M805.246,600.642l144.593-16.344l5.329-12.743l-145.423,19.327L805.246,600.642z M781.826,651.43l138.414,3.533l5.455-13.022l-138.917-1.255L781.826,651.43z M484.618,623.192l102.85-17.435 c112.465-105.283,66.118-337.077-137.903-337.821H208.311v550.106h140.664v-286.84V393.676c33.016,0,67.586-0.792,100.591,0 c80.164,0.782,76.235,137.526,0,137.526H348.974l167.395,286.84H673.54v-20.438l-94.982-153.918L484.618,623.192z M1022.473,267.861h-60.519L816.125,577.058l145.935-21.952l29.762-71.061l26.509,62.594l127.487-19.182L1022.473,267.861z M714.405,797.606v20.438H851.94l62.257-148.648l-137.922-5.938L714.405,797.606z M1355.737,538.404l214.601-24.269l16.518-26.528 L1344.23,519.85L1355.737,538.404z M1385.866,666.875l139.1,3.562v-23.082l-139.1-1.255V666.875z M1557.972,267.937l-99.8,183.102 h-5.502l-99.81-183.102h-151.669v21.219l130.431,210.353l273.44-41.134l105.37-169.219v-21.219H1557.972z M1385.866,818.043h139.1 V695.691l-139.1-5.994V818.043z M1073.223,676.239l60.055,141.804h137.526v-20.438l-53.278-115.149L1073.223,676.239z M1199.927,644.421l-140.722-1.274l6.584,15.543l142.43,3.648L1199.927,644.421z M1153.994,545.133l-129.03,17.154l5.464,12.897 l130.633-14.77L1153.994,545.133z"></path> </g> <g id="RAY_Brand_Off_White" display="none"> <path display="inline" fill="#F4E8CE" d="M805.246,600.642l144.593-16.344l5.329-12.743l-145.423,19.327L805.246,600.642z M781.826,651.43l138.414,3.533l5.455-13.022l-138.917-1.255L781.826,651.43z M484.618,623.192l102.85-17.435 c112.465-105.283,66.118-337.077-137.903-337.821H208.311v550.106h140.664v-286.84V393.676c33.016,0,67.586-0.792,100.591,0 c80.164,0.782,76.235,137.526,0,137.526H348.974l167.395,286.84H673.54v-20.438l-94.982-153.918L484.618,623.192z M1022.473,267.861h-60.519L816.125,577.058l145.935-21.952l29.762-71.061l26.509,62.594l127.487-19.182L1022.473,267.861z M714.405,797.606v20.438H851.94l62.257-148.648l-137.922-5.938L714.405,797.606z M1355.737,538.404l214.601-24.269l16.518-26.528 L1344.23,519.85L1355.737,538.404z M1385.866,666.875l139.1,3.562v-23.082l-139.1-1.255V666.875z M1557.972,267.937l-99.8,183.102 h-5.502l-99.81-183.102h-151.669v21.219l130.431,210.353l273.44-41.134l105.37-169.219v-21.219H1557.972z M1385.866,818.043h139.1 V695.691l-139.1-5.994V818.043z M1073.223,676.239l60.055,141.804h137.526v-20.438l-53.278-115.149L1073.223,676.239z M1199.927,644.421l-140.722-1.274l6.584,15.543l142.43,3.648L1199.927,644.421z M1153.994,545.133l-129.03,17.154l5.464,12.897 l130.633-14.77L1153.994,545.133z"></path> </g> </svg> 